<svg width="16px" height="16px" viewBox="0 0 24 24">
<path d="M19.52,3.986C17.552,2.14,14.912,1,12,1C9.089,1,6.449,2.14,4.481,3.986c2.268,0.165,4.999,1.383,7.521,3.502
  C14.521,5.369,17.252,4.151,19.52,3.986z"/>
<path d="M19.626,4.083c-1.341,1.492-3.418,2.877-5.9,5.053c2.559,2.717,4.688,6.41,5.535,10.9c-2.521-4.204-5.008-7.11-7.259-9.304
  c-2.255,2.193-4.741,5.1-7.261,9.304c0.846-4.49,2.977-8.184,5.533-10.9c-2.482-2.176-4.559-3.561-5.9-5.053
  C2.298,6.084,1,8.888,1,11.999C1,18.073,5.926,23,12,23c6.076,0,11-4.927,11-11.001C23,8.887,21.703,6.083,19.626,4.083z"/>
<path fill="#FFFFFF" d="M4.263,3.964c0.035,0.04,0.076,0.079,0.111,0.119C4.409,4.05,4.446,4.019,4.481,3.986
  C4.409,3.98,4.334,3.967,4.263,3.964z"/>
<path fill="#FFFFFF" d="M19.737,3.964c-0.07,0.003-0.146,0.017-0.218,0.022c0.035,0.032,0.072,0.063,0.106,0.097
  C19.662,4.043,19.703,4.004,19.737,3.964z"/>
</svg>
